<?xml version="1.0" standalone="no"?>
<!DOCTYPE svg PUBLIC "-//W3C//DTD SVG 20010904//EN"
 "http://www.w3.org/TR/2001/REC-SVG-20010904/DTD/svg10.dtd">
<svg version="1.0" xmlns="http://www.w3.org/2000/svg"
 width="900.000000pt" height="399.000000pt" viewBox="0 0 900.000000 399.000000"
 preserveAspectRatio="xMidYMid meet">
<metadata>
Created by potrace 1.10, written by Peter Selinger 2001-2011
</metadata>
<g transform="translate(0.000000,399.000000) scale(0.100000,-0.100000)"
fill="#ff0000" stroke="none">
<path d="M4510 3400 c-19 -5 -73 -16 -120 -25 -47 -9 -114 -22 -150 -30 -197
-39 -419 -80 -515 -95 -53 -8 -169 -30 -295 -55 -41 -8 -102 -20 -135 -25 -33
-6 -76 -15 -95 -20 -34 -9 -154 -31 -345 -65 -182 -32 -261 -46 -310 -56 -27
-5 -108 -21 -180 -35 -178 -35 -247 -48 -410 -78 -77 -14 -176 -32 -220 -40
-44 -9 -93 -17 -110 -20 -55 -8 -244 -44 -465 -89 -69 -14 -167 -33 -217 -42
-51 -10 -93 -23 -93 -29 0 -6 18 -54 41 -106 22 -52 44 -104 49 -115 5 -11 27
-60 50 -109 23 -49 53 -115 67 -145 13 -31 28 -65 33 -76 5 -11 18 -42 30 -70
27 -63 38 -89 90 -199 22 -49 59 -132 81 -185 22 -53 55 -127 74 -166 58 -122
92 -198 130 -290 20 -49 61 -139 90 -200 29 -60 63 -135 75 -165 31 -77 35
-86 74 -173 l36 -77 2835 0 2836 0 15 38 c9 20 24 55 33 77 10 22 31 69 46
105 16 36 50 112 77 170 65 140 72 156 98 220 12 30 39 91 60 135 47 99 83
178 114 253 13 31 43 97 66 147 23 49 52 112 65 140 13 27 42 95 65 150 24 55
62 143 87 195 24 52 48 104 53 115 5 11 23 51 39 88 17 38 31 71 31 74 0 3 16
39 35 80 19 41 35 81 35 89 0 15 1 15 -155 45 -168 32 -243 46 -330 64 -107
22 -228 44 -295 54 -30 5 -80 13 -110 19 -30 6 -109 21 -175 33 -66 11 -163
30 -215 41 -193 39 -390 77 -460 87 -30 5 -80 13 -110 20 -30 6 -120 22 -200
37 -80 14 -176 32 -215 39 -66 13 -103 20 -305 60 -104 21 -226 43 -300 54
-30 5 -107 19 -170 31 -261 48 -337 63 -495 95 -156 32 -171 34 -225 33 -30 0
-71 -4 -90 -8z m3042 -992 c-2 -36 -11 -95 -20 -130 l-17 -63 -95 1 c-52 0
-185 4 -294 9 l-199 8 6 -24 c4 -14 9 -51 13 -83 l7 -58 66 6 c36 3 107 10
156 15 117 13 127 7 144 -85 10 -55 10 -69 -1 -79 -7 -7 -67 -29 -133 -50 -66
-21 -124 -41 -130 -45 -5 -4 -23 -10 -38 -14 -26 -6 -28 -9 -25 -54 l3 -47 45
1 c43 1 106 13 265 50 39 9 84 17 100 18 29 1 30 -1 33 -48 2 -26 -2 -71 -8
-100 -6 -28 -15 -77 -20 -110 -15 -103 16 -96 -446 -96 -374 0 -404 1 -413 18
-11 21 -19 1002 -8 1020 7 9 115 12 510 10 l502 -3 -3 -67z m-1584 50 c7 -9 6
-45 -4 -118 -20 -141 -43 -327 -54 -425 -4 -44 -11 -104 -15 -132 -8 -60 -7
-60 70 -43 221 50 370 80 397 80 34 0 42 -23 29 -82 -5 -23 -17 -79 -26 -123
-9 -44 -23 -104 -32 -132 l-15 -53 -346 -2 c-460 -3 -450 -4 -458 5 -9 9 -35
533 -47 947 l-2 75 70 6 c146 12 422 10 433 -3z m-2224 -8 c18 -7 27 -19 32
-47 3 -21 12 -58 19 -83 7 -25 20 -71 29 -103 36 -133 48 -173 56 -192 5 -11
13 -38 18 -60 6 -22 27 -101 47 -175 21 -74 41 -151 46 -170 15 -64 37 -145
43 -161 14 -33 -16 -40 -175 -37 l-154 3 -23 48 -22 47 -230 0 c-254 0 -236 4
-283 -70 -12 -19 -33 -37 -47 -41 -31 -9 -273 -11 -294 -3 -24 9 -19 37 19
112 19 37 51 103 71 147 20 44 64 139 99 210 34 72 72 153 85 180 13 28 60
127 106 222 l84 172 77 4 c179 7 373 6 397 -3z m1296 -15 c104 -45 177 -113
212 -198 50 -123 -11 -287 -128 -347 -27 -14 -51 -26 -53 -27 -4 -2 35 -87
120 -256 38 -76 69 -145 69 -152 0 -8 -9 -19 -19 -25 -20 -10 -349 -14 -386
-4 -11 3 -78 77 -150 164 -71 87 -133 159 -136 159 -3 1 -15 -67 -25 -150 -10
-83 -23 -158 -29 -166 -9 -12 -44 -16 -166 -21 -135 -4 -156 -3 -168 12 -9 11
-16 70 -22 194 -5 97 -14 215 -19 262 -5 47 -10 117 -10 156 0 39 -3 99 -6
133 l-7 61 -64 0 c-48 0 -65 4 -69 15 -4 9 -7 56 -8 106 -1 70 2 92 14 99 9 7
199 9 510 7 463 -2 498 -4 540 -22z m-2377 -3 c85 -21 173 -69 217 -120 68
-77 85 -116 85 -202 0 -91 -15 -123 -94 -200 -109 -106 -244 -153 -481 -167
l-135 -8 -7 -85 c-9 -119 -25 -231 -35 -240 -4 -4 -71 -10 -149 -14 -112 -5
-144 -3 -159 8 -17 12 -21 36 -31 157 -28 327 -34 399 -45 509 -6 63 -13 121
-15 128 -2 8 -24 12 -63 12 -49 0 -62 4 -71 19 -14 28 -13 194 2 209 17 17
911 11 981 -6z"/>
<path d="M3434 2023 c-10 -26 -38 -86 -61 -132 -23 -47 -39 -89 -37 -93 7 -11
192 -10 199 2 3 5 -6 49 -19 97 -14 48 -30 107 -36 131 -6 23 -14 42 -19 42
-4 0 -17 -21 -27 -47z"/>
<path d="M4616 2188 c-14 -45 -26 -112 -26 -143 l0 -37 63 7 c34 3 77 10 96
15 76 20 106 89 56 129 -44 34 -181 55 -189 29z"/>
<path d="M2310 2165 c-4 -5 -10 -32 -13 -60 -4 -27 -9 -63 -13 -79 l-7 -29 90
5 c97 4 145 26 163 74 13 32 3 52 -34 72 -36 19 -174 32 -186 17z"/>
</g>
</svg>
